<svg width="20" height="18" viewBox="0 0 20 18" fill="none" xmlns="http://www.w3.org/2000/svg">
<path d="M20 9L15 5L15 8L6 8L6 10L15 10L15 13L20 9Z" fill="white"/>
<path d="M8.78718 18C9.94156 18.0032 11.0851 17.7719 12.1516 17.3193C13.218 16.8667 14.1862 16.2018 15 15.3633L13.6196 13.9494C12.329 15.2713 10.6128 16.0002 8.78718 16.0002C6.9616 16.0002 5.24536 15.2713 3.95477 13.9494C2.66417 12.6276 1.95249 10.8698 1.95249 8.99998C1.95249 7.13019 2.66417 5.37239 3.95477 4.05054C5.24536 2.72869 6.9616 1.99978 8.78718 1.99978C10.6128 1.99978 12.329 2.72869 13.6196 4.05054L15 2.6367C13.3414 0.936895 11.135 1.56946e-06 8.78718 1.36421e-06C6.43931 1.15895e-06 4.233 0.936894 2.57436 2.6367C0.914742 4.33551 -9.10314e-07 6.59525 -1.12054e-06 8.99998C-1.33077e-06 11.4047 0.914741 13.6645 2.57436 15.3633C3.38816 16.2018 4.35633 16.8667 5.42279 17.3193C6.48925 17.7719 7.63279 18.0032 8.78718 18Z" fill="white"/>
</svg>
