<svg width="19" height="16" viewBox="0 0 19 16" fill="none" xmlns="http://www.w3.org/2000/svg">
<path d="M9.97513 15.2941C9.97513 15.4647 9.91277 15.6295 9.7996 15.7581C9.68643 15.8866 9.5301 15.9702 9.35952 15.9934L9.26262 16L4.51256 16C3.35145 16 2.23503 15.5566 1.39546 14.762C0.55589 13.9674 0.0577921 12.8828 0.00474879 11.7336L-5.03967e-07 11.5294L-1.95416e-07 4.47059C-0.000133691 4.03256 0.136843 3.60527 0.392057 3.24758C0.647272 2.8899 1.00817 2.61942 1.42502 2.47341L1.42502 11.5294L1.42977 11.7026C1.47287 12.4525 1.79298 13.1605 2.3291 13.6916C2.86521 14.2228 3.57985 14.5399 4.33681 14.5826L4.51256 14.5882L9.26262 14.5882C9.45159 14.5882 9.63282 14.6626 9.76644 14.795C9.90006 14.9274 9.97513 15.1069 9.97513 15.2941ZM11.8752 12.9412C11.8752 13.1118 11.8128 13.2766 11.6996 13.4051C11.5865 13.5337 11.4301 13.6173 11.2596 13.6405L11.1626 13.6471L4.51256 13.6471C3.97093 13.6471 3.44947 13.4435 3.05357 13.0773C2.65767 12.7111 2.41685 12.2097 2.37978 11.6744L2.37503 11.5294L2.37503 2.11765C2.37496 1.58106 2.58051 1.06445 2.95014 0.672232C3.31977 0.280013 3.8259 0.0414319 4.36626 0.00470535L4.51256 -6.33266e-07L11.1626 -3.42581e-07C11.3432 5.44819e-05 11.5169 0.0679946 11.6489 0.190092C11.7808 0.312189 11.861 0.47934 11.8733 0.657769C11.8856 0.836199 11.8291 1.0126 11.7151 1.15134C11.6012 1.29008 11.4384 1.3808 11.2596 1.40518L11.1626 1.41176L4.51256 1.41176C4.15156 1.41176 3.85325 1.67718 3.8067 2.02165L3.80005 2.11765L3.80005 11.5294C3.80006 11.7 3.86241 11.8648 3.97558 11.9933C4.08875 12.1219 4.24508 12.2055 4.41566 12.2287L4.51256 12.2353L11.1626 12.2353C11.3516 12.2353 11.5328 12.3097 11.6665 12.442C11.8001 12.5744 11.8752 12.754 11.8752 12.9412ZM14.995 2.55812L18.7913 6.32094C18.9119 6.44046 18.9853 6.59891 18.998 6.76748C19.0107 6.93606 18.962 7.10356 18.8606 7.23953L18.7922 7.31859L14.995 11.0871C14.868 11.2137 14.6973 11.288 14.5173 11.2949C14.3373 11.3019 14.1613 11.241 14.0247 11.1246C13.8882 11.0081 13.8012 10.8448 13.7814 10.6674C13.7615 10.49 13.8102 10.3117 13.9177 10.1685L13.987 10.0894L16.5654 7.52941L7.35785 7.52941C7.18567 7.5294 7.01932 7.46763 6.88956 7.35551C6.7598 7.2434 6.67541 7.08852 6.65199 6.91953L6.64534 6.82353C6.64535 6.65295 6.7077 6.48815 6.82087 6.35959C6.93404 6.23104 7.09037 6.14743 7.26095 6.12424L7.35785 6.11765L16.572 6.11765L13.987 3.55671C13.8663 3.43701 13.7929 3.27832 13.7804 3.10953C13.7678 2.94075 13.8169 2.77312 13.9186 2.63718L13.987 2.55812C14.1079 2.43847 14.268 2.3658 14.4384 2.35336C14.6088 2.34092 14.778 2.38954 14.9152 2.49035L14.995 2.55812Z" fill="#404557"/>
</svg>
