<svg width="19" height="17" viewBox="0 0 19 17" fill="none" xmlns="http://www.w3.org/2000/svg">
<path d="M9.97513 15.3623C9.97513 15.5329 9.91277 15.6977 9.7996 15.8262C9.68643 15.9548 9.5301 16.0384 9.35952 16.0616L9.26262 16.0682L4.51256 16.0682C3.35145 16.0682 2.23503 15.6248 1.39546 14.8302C0.55589 14.0356 0.0577921 12.9509 0.00474879 11.8018L-5.03967e-07 11.5976L-1.95416e-07 4.53876C-0.000133691 4.10074 0.136843 3.67345 0.392057 3.31576C0.647272 2.95808 1.00817 2.6876 1.42502 2.54159L1.42502 11.5976L1.42977 11.7708C1.47287 12.5207 1.79298 13.2287 2.3291 13.7598C2.86521 14.2909 3.57985 14.6081 4.33681 14.6508L4.51256 14.6564L9.26262 14.6564C9.45159 14.6564 9.63282 14.7308 9.76644 14.8632C9.90006 14.9955 9.97513 15.1751 9.97513 15.3623ZM11.8752 13.0094C11.8752 13.1799 11.8128 13.3447 11.6996 13.4733C11.5865 13.6018 11.4301 13.6854 11.2596 13.7086L11.1626 13.7152L4.51256 13.7152C3.97093 13.7153 3.44947 13.5117 3.05357 13.1455C2.65767 12.7793 2.41685 12.2779 2.37978 11.7425L2.37503 11.5976L2.37503 2.18582C2.37497 1.64923 2.58051 1.13263 2.95014 0.740408C3.31977 0.348189 3.8259 0.109608 4.36626 0.0728816L4.51256 0.0681756L11.1626 0.0681759C11.3432 0.0682308 11.5169 0.136171 11.6489 0.258268C11.7808 0.380365 11.861 0.547516 11.8733 0.725946C11.8856 0.904375 11.8291 1.08078 11.7151 1.21952C11.6012 1.35825 11.4384 1.44897 11.2596 1.47335L11.1626 1.47994L4.51256 1.47994C4.15156 1.47994 3.85325 1.74535 3.8067 2.08982L3.80005 2.18582L3.80005 11.5976C3.80006 11.7682 3.86241 11.933 3.97558 12.0615C4.08875 12.1901 4.24508 12.2737 4.41566 12.2969L4.51256 12.3035L11.1626 12.3035C11.3516 12.3035 11.5328 12.3778 11.6665 12.5102C11.8001 12.6426 11.8752 12.8221 11.8752 13.0094ZM14.995 2.62629L18.7913 6.38912C18.9119 6.50864 18.9853 6.66709 18.998 6.83566C19.0107 7.00423 18.962 7.17173 18.8606 7.30771L18.7922 7.38676L14.995 11.1552C14.868 11.2819 14.6973 11.3561 14.5173 11.3631C14.3373 11.3701 14.1613 11.3092 14.0247 11.1928C13.8882 11.0763 13.8012 10.913 13.7814 10.7356C13.7615 10.5582 13.8102 10.3799 13.9177 10.2366L13.987 10.1576L16.5654 7.59759L7.35785 7.59759C7.18567 7.59758 7.01932 7.53581 6.88956 7.42369C6.7598 7.31157 6.67541 7.1567 6.65199 6.98771L6.64534 6.89171C6.64535 6.72113 6.7077 6.55632 6.82087 6.42777C6.93404 6.29922 7.09037 6.21561 7.26095 6.19241L7.35785 6.18582L16.572 6.18582L13.987 3.62488C13.8663 3.50519 13.7929 3.34649 13.7804 3.17771C13.7678 3.00893 13.8169 2.84129 13.9186 2.70535L13.987 2.62629C14.1079 2.50664 14.268 2.43398 14.4384 2.42154C14.6088 2.4091 14.778 2.45772 14.9152 2.55853L14.995 2.62629Z" fill="white"/>
</svg>
