<svg width="40" height="40" viewBox="0 0 40 40" fill="none" xmlns="http://www.w3.org/2000/svg">
<g clip-path="url(#clip0_1096_2090)">
<path d="M19.7163 39.9258C19.1661 39.9258 18.6526 39.779 18.1758 39.5223L13.2973 36.6246C12.5637 36.2211 12.9305 36.0744 13.1506 36.001C14.1409 35.6709 14.3243 35.5976 15.3513 35.0106C15.4615 34.9372 15.6082 34.9739 15.7181 35.0473L19.4595 37.2848C19.6062 37.3581 19.7896 37.3581 19.8997 37.2848L34.5349 28.8118C34.6817 28.7385 34.755 28.5918 34.755 28.4084V11.4989C34.755 11.3155 34.6817 11.1688 34.5349 11.0954L19.8997 2.65903C19.7529 2.58568 19.5695 2.58568 19.4595 2.65903L4.82422 11.0956C4.67751 11.1689 4.60415 11.3523 4.60415 11.499V28.4084C4.60415 28.5551 4.67751 28.7385 4.82422 28.8118L8.82242 31.1226C10.9866 32.2229 12.3435 30.9392 12.3435 29.6554V12.966C12.3435 12.746 12.5271 12.5259 12.7838 12.5259H14.6545C14.8746 12.5259 15.0947 12.7093 15.0947 12.966V29.6553C15.0947 32.553 13.5174 34.2402 10.7664 34.2402C9.92277 34.2402 9.26256 34.2402 7.39197 33.3233L3.54048 31.1226C2.58685 30.5723 2 29.5453 2 28.4449V11.5357C2 10.4354 2.58685 9.40838 3.54048 8.85806L18.1758 0.385121C19.0927 -0.128374 20.3398 -0.128374 21.2567 0.385121L35.892 8.85806C36.8457 9.40824 37.4325 10.4352 37.4325 11.5357V28.4451C37.4325 29.5454 36.8457 30.5724 35.892 31.1226L21.2567 39.5958C20.7799 39.8159 20.2298 39.9259 19.7163 39.9259V39.9258ZM24.2278 28.2982C17.8089 28.2982 16.4884 25.3639 16.4884 22.8697C16.4884 22.6496 16.6718 22.4296 16.9286 22.4296H18.8358C19.0559 22.4296 19.2394 22.5763 19.2394 22.7963C19.5329 24.7403 20.3765 25.6941 24.2645 25.6941C27.3456 25.6941 28.6662 24.9972 28.6662 23.3466C28.6662 22.3929 28.2994 21.696 23.4943 21.219C19.4962 20.8156 17.0019 19.9353 17.0019 16.7443C17.0019 13.7731 19.4961 12.0125 23.6776 12.0125C28.3726 12.0125 30.6835 13.6264 30.9769 17.1476C30.9769 17.2577 30.9402 17.3677 30.8669 17.4777C30.7935 17.5511 30.6835 17.6244 30.5734 17.6244H28.6662C28.4826 17.6244 28.2994 17.4777 28.2626 17.2943C27.8224 15.277 26.6854 14.6168 23.6776 14.6168C20.3033 14.6168 19.8997 15.7905 19.8997 16.6708C19.8997 17.7346 20.3765 18.0646 24.9247 18.6514C29.4364 19.2383 31.5637 20.082 31.5637 23.2365C31.5271 26.4643 28.8862 28.2982 24.2278 28.2982Z" fill="#539E43"/>
</g>
<defs>
<clipPath id="clip0_1096_2090">
<rect width="35.4325" height="40" fill="white" transform="translate(2)"/>
</clipPath>
</defs>
</svg>
