<svg width="52" height="52" viewBox="0 0 52 52" fill="none" xmlns="http://www.w3.org/2000/svg">
<rect width="52" height="52" rx="26" fill="white"/>
<path fill-rule="evenodd" clip-rule="evenodd" d="M26 10C17.16 10 10 17.3411 10 26.4047C10 33.6638 14.58 39.795 20.94 41.9687C21.74 42.1122 22.04 41.6201 22.04 41.1894C22.04 40.7998 22.02 39.508 22.02 38.1341C18 38.8928 16.96 37.1293 16.64 36.2065C16.46 35.7349 15.68 34.279 15 33.8893C14.44 33.5818 13.64 32.823 14.98 32.8025C16.24 32.782 17.14 33.9919 17.44 34.484C18.88 36.9652 21.18 36.268 22.1 35.8374C22.24 34.7711 22.66 34.0534 23.12 33.6433C19.56 33.2332 15.84 31.8183 15.84 25.5435C15.84 23.7594 16.46 22.283 17.48 21.1347C17.32 20.7246 16.76 19.0431 17.64 16.7874C17.64 16.7874 18.98 16.3568 22.04 18.4689C23.32 18.0998 24.68 17.9153 26.04 17.9153C27.4 17.9153 28.76 18.0998 30.04 18.4689C33.1 16.3363 34.44 16.7874 34.44 16.7874C35.32 19.0431 34.76 20.7246 34.6 21.1347C35.62 22.283 36.24 23.7389 36.24 25.5435C36.24 31.8388 32.5 33.2332 28.94 33.6433C29.52 34.1559 30.02 35.1402 30.02 36.6781C30.02 38.8723 30 40.6358 30 41.1894C30 41.6201 30.3 42.1327 31.1 41.9687C34.2762 40.8692 37.0362 38.7761 38.9916 35.9842C40.9469 33.1922 41.999 29.8419 42 26.4047C42 17.3411 34.84 10 26 10Z" fill="#404557"/>
</svg>
