<svg width="40" height="40" viewBox="0 0 40 40" fill="none" xmlns="http://www.w3.org/2000/svg">
<path d="M34.4001 0C36.3682 0 37.9677 1.5795 37.9996 3.54052L38.0001 3.60001V36.4C38.0001 38.3682 36.4201 39.9677 34.4595 39.9996L34.4001 40H5.60001C3.63182 40 2.03234 38.4201 2.00042 36.4596L2 36.4V3.60001C2 1.63139 3.57992 0.0323438 5.54052 0.000421876L5.60001 0H34.4001ZM34.4001 1.99997H5.60001C4.73179 1.99997 4.02247 2.69579 4.00053 3.5588L3.99997 3.60001V36.4C3.99997 37.2682 4.69579 37.9775 5.5588 37.9995L5.60001 38H34.4001C35.2687 38 35.9776 37.3044 35.9995 36.4413L36.0001 36.4V3.60001C36.0001 2.718 35.2826 1.99997 34.4001 1.99997ZM11 26.0002L15.5 30.0001L11 34.0002V26.0001V26.0002ZM15 6.00006V17.3555C16.997 16.7056 19.7885 15.9999 22.5001 15.9999C24.9725 15.9999 26.4525 16.9721 27.2585 17.7875C28.9614 19.5102 29.0019 21.6997 28.9996 21.9918V22L29 34.0001H25.0001V22.0551C24.9804 21.1215 24.5304 20 22.5001 20C18.4737 20 13.9621 22.0049 13.8283 22.0648L13.8255 22.0661L11 23.346V5.99992H15V6.00006ZM29 6.00006C28.73 8.272 27.8089 10.45 26.0001 12.5H22C23.5721 10.4375 24.5591 8.26708 25.0001 6.00006H29Z" fill="#430098"/>
</svg>
