<svg width="52" height="52" viewBox="0 0 52 52" fill="none" xmlns="http://www.w3.org/2000/svg">
<rect width="52" height="52" rx="26" fill="white"/>
<rect x="8" y="8" width="36" height="36" rx="18" fill="#404557"/>
<g clip-path="url(#clip0_1110_2009)">
<path d="M36 20.5474V32.1382C36 32.8916 35.39 33.5016 34.6367 33.5016H31.4542V25.7749L26 29.8666L20.5458 25.7749V33.5024H17.3633C17.1842 33.5024 17.0069 33.4671 16.8414 33.3986C16.676 33.33 16.5256 33.2295 16.399 33.1028C16.2724 32.9761 16.172 32.8257 16.1035 32.6602C16.0351 32.4947 15.9999 32.3173 16 32.1382V20.5474C16 18.8616 17.9242 17.8991 19.2725 18.9107L20.5458 19.8666L26 23.9566L31.4542 19.8649L32.7275 18.9107C34.075 17.8999 36 18.8616 36 20.5474Z" fill="white"/>
</g>
<defs>
<clipPath id="clip0_1110_2009">
<rect width="20" height="20" fill="white" transform="translate(16 16)"/>
</clipPath>
</defs>
</svg>
