<svg width="40" height="40" viewBox="0 0 40 40" fill="none" xmlns="http://www.w3.org/2000/svg">
<path d="M20.775 37.5L19.8362 37.1887C19.8362 37.1887 19.9612 32.4387 18.2425 32.105C17.1175 30.795 18.4087 -23.8213 22.5212 31.9187C21.741 32.3145 21.1439 32.9967 20.855 33.8225C20.7001 35.0422 20.6733 36.2747 20.775 37.5Z" fill="url(#paint0_linear_1110_2005)"/>
<path d="M21.2825 32.9113C23.782 31.0298 25.6961 28.4775 26.8025 25.5512C27.9089 22.6248 28.162 19.4446 27.5325 16.3801C25.695 8.27381 21.3438 5.60881 20.875 4.59131C20.4706 3.95772 20.1254 3.28823 19.8438 2.59131L20.19 25.1776C20.19 25.1776 19.4725 32.0801 21.2825 32.9113Z" fill="url(#paint1_linear_1110_2005)"/>
<path d="M19.3587 33.2113C19.3587 33.2113 11.7074 28 12.1499 18.7812C12.1912 16.0021 12.8285 13.2641 14.0186 10.7523C15.2087 8.24046 16.924 6.01331 19.0487 4.22125C19.297 4.01031 19.4943 3.74584 19.6257 3.44773C19.7571 3.14961 19.8192 2.82559 19.8074 2.5C20.2837 3.525 20.2062 17.8038 20.2562 19.4738C20.45 25.97 19.895 31.985 19.3587 33.2113Z" fill="url(#paint2_linear_1110_2005)"/>
<defs>
<linearGradient id="paint0_linear_1110_2005" x1="14.4646" y1="20.3154" x2="25.2541" y2="23.9768" gradientUnits="userSpaceOnUse">
<stop offset="0.231" stop-color="#999875"/>
<stop offset="0.563" stop-color="#9B9977"/>
<stop offset="0.683" stop-color="#A09F7E"/>
<stop offset="0.768" stop-color="#A9A889"/>
<stop offset="0.837" stop-color="#B7B69A"/>
<stop offset="0.896" stop-color="#C9C7B0"/>
<stop offset="0.948" stop-color="#DEDDCB"/>
<stop offset="0.994" stop-color="#F8F6EB"/>
<stop offset="1" stop-color="#FBF9EF"/>
</linearGradient>
<linearGradient id="paint1_linear_1110_2005" x1="18.4212" y1="2.42992" x2="23.1912" y2="32.2161" gradientUnits="userSpaceOnUse">
<stop stop-color="#48A547"/>
<stop offset="1" stop-color="#3F9143"/>
</linearGradient>
<linearGradient id="paint2_linear_1110_2005" x1="11.4918" y1="19.6938" x2="24.2926" y2="15.4068" gradientUnits="userSpaceOnUse">
<stop stop-color="#41A247"/>
<stop offset="0.352" stop-color="#4BA74B"/>
<stop offset="0.956" stop-color="#67B554"/>
<stop offset="1" stop-color="#69B655"/>
</linearGradient>
</defs>
</svg>
