<svg width="40" height="40" viewBox="0 0 40 40" fill="none" xmlns="http://www.w3.org/2000/svg">
<rect width="40" height="40" fill="black"/>
<g clip-path="url(#clip0_1096_1938)">
<path d="M15 35.2C17.76 35.2 20 32.96 20 30.2V25.2H15C12.24 25.2 10 27.44 10 30.2C10 32.96 12.24 35.2 15 35.2Z" fill="#0ACF83"/>
<path d="M10 20.2C10 17.44 12.24 15.2 15 15.2H20V25.2H15C12.24 25.2 10 22.96 10 20.2Z" fill="#A259FF"/>
<path d="M10 10.2C10 7.43995 12.24 5.19995 15 5.19995H20V15.2H15C12.24 15.2 10 12.96 10 10.2Z" fill="#F24E1E"/>
<path d="M20 5.19995H25C27.76 5.19995 30 7.43995 30 10.2C30 12.96 27.76 15.2 25 15.2H20V5.19995Z" fill="#FF7262"/>
<path d="M30 20.2C30 22.96 27.76 25.2 25 25.2C22.24 25.2 20 22.96 20 20.2C20 17.44 22.24 15.2 25 15.2C27.76 15.2 30 17.44 30 20.2Z" fill="#1ABCFE"/>
</g>
<defs>
<clipPath id="clip0_1096_1938">
<rect width="20" height="30" fill="white" transform="translate(10 5.19995)"/>
</clipPath>
</defs>
</svg>
