<svg width="102" height="42" viewBox="0 0 102 42" fill="none" xmlns="http://www.w3.org/2000/svg">
<path d="M47.7552 31.196C46.3179 31.196 45.0299 30.9627 43.8912 30.496C42.7526 30.0293 41.8379 29.3387 41.1472 28.424C40.4752 27.5093 40.1206 26.408 40.0832 25.12H45.1792C45.2539 25.848 45.5059 26.408 45.9352 26.8C46.3646 27.1733 46.9246 27.36 47.6152 27.36C48.3246 27.36 48.8846 27.2013 49.2952 26.884C49.7059 26.548 49.9112 26.0907 49.9112 25.512C49.9112 25.0267 49.7432 24.6253 49.4072 24.308C49.0899 23.9907 48.6886 23.7293 48.2032 23.524C47.7366 23.3187 47.0646 23.0853 46.1872 22.824C44.9179 22.432 43.8819 22.04 43.0792 21.648C42.2766 21.256 41.5859 20.6773 41.0072 19.912C40.4286 19.1467 40.1392 18.148 40.1392 16.916C40.1392 15.0867 40.8019 13.6587 42.1272 12.632C43.4526 11.5867 45.1792 11.064 47.3072 11.064C49.4726 11.064 51.2179 11.5867 52.5432 12.632C53.8686 13.6587 54.5779 15.096 54.6712 16.944H49.4912C49.4539 16.3093 49.2206 15.8147 48.7912 15.46C48.3619 15.0867 47.8112 14.9 47.1392 14.9C46.5606 14.9 46.0939 15.0587 45.7392 15.376C45.3846 15.6747 45.2072 16.1133 45.2072 16.692C45.2072 17.3267 45.5059 17.8213 46.1032 18.176C46.7006 18.5307 47.6339 18.9133 48.9032 19.324C50.1726 19.7533 51.1992 20.164 51.9832 20.556C52.7859 20.948 53.4766 21.5173 54.0552 22.264C54.6339 23.0107 54.9232 23.972 54.9232 25.148C54.9232 26.268 54.6339 27.2853 54.0552 28.2C53.4952 29.1147 52.6739 29.8427 51.5912 30.384C50.5086 30.9253 49.2299 31.196 47.7552 31.196ZM62.6578 11.344V31H57.8698V11.344H62.6578ZM80.2676 11.344V15.18H75.0596V31H70.2716V15.18H65.0636V11.344H80.2676ZM97.6506 17.672C97.6506 18.8107 97.3892 19.856 96.8666 20.808C96.3439 21.7413 95.5412 22.4973 94.4586 23.076C93.3759 23.6547 92.0319 23.944 90.4266 23.944H87.4586V31H82.6706V11.344H90.4266C91.9946 11.344 93.3199 11.6147 94.4026 12.156C95.4852 12.6973 96.2972 13.444 96.8386 14.396C97.3799 15.348 97.6506 16.44 97.6506 17.672ZM90.0626 20.136C90.9772 20.136 91.6586 19.9213 92.1066 19.492C92.5546 19.0627 92.7786 18.456 92.7786 17.672C92.7786 16.888 92.5546 16.2813 92.1066 15.852C91.6586 15.4227 90.9772 15.208 90.0626 15.208H87.4586V20.136H90.0626Z" fill="#0D8BFF"/>
<rect y="9" width="13.1443" height="12.5" rx="1" fill="#0D8BFF"/>
<rect x="13.1445" y="21.5" width="13.1443" height="12.5" rx="1" fill="#0D8BFF"/>
</svg>
