<svg width="38" height="36" viewBox="0 0 38 36" fill="none" xmlns="http://www.w3.org/2000/svg">
<path d="M19.1056 11C14.9889 11 11.7167 14.1 11.7167 18C11.7167 21.9 14.9889 25 19.1056 25C23.2222 25 26.4945 21.9 26.4945 18C26.4945 14.1 23.2222 11 19.1056 11ZM19.1056 23C16.15 23 13.8278 20.8 13.8278 18C13.8278 15.2 16.15 13 19.1056 13C22.0611 13 24.3833 15.2 24.3833 18C24.3833 20.8 22.0611 23 19.1056 23Z" fill="#0D8BFF"/>
<path d="M34.6222 14.7L31.6667 13.8L31.0333 12.3L32.5111 9.7C32.8278 9.1 32.7222 8.3 32.1944 7.8L29.6611 5.4C29.1333 4.9 28.2889 4.8 27.6556 5.1L24.9111 6.5L23.3278 5.9L22.3778 3.1C22.1667 2.5 21.5333 2 20.7944 2H17.2056C16.4667 2 15.8333 2.5 15.7278 3.2L14.7778 6C14.1444 6.1 13.6167 6.3 13.0889 6.6L10.3444 5.2C9.71111 4.9 8.86667 5 8.33889 5.5L5.80556 7.9C5.27778 8.4 5.17223 9.2 5.48889 9.8L6.86111 12.3C6.65 12.8 6.43889 13.4 6.22778 13.9L3.27223 14.8C2.63889 15 2.11111 15.6 2.11111 16.3V19.7C2.11111 20.4 2.63889 21 3.37778 21.2L6.33334 22.1L6.96667 23.6L5.48889 26.2C5.17223 26.8 5.27778 27.6 5.80556 28.1L8.33889 30.5C8.86667 31 9.71111 31.1 10.3444 30.8L13.0889 29.4L14.6722 30L15.6222 32.9C15.8333 33.5 16.4667 34 17.2056 34H20.7944C21.5333 34 22.1667 33.5 22.3778 32.9L23.3278 30L24.9111 29.4L27.6556 30.8C28.2889 31.1 29.1333 31 29.6611 30.5L32.1944 28.1C32.7222 27.6 32.8278 26.8 32.5111 26.2L31.0333 23.6L31.6667 22.1L34.7278 21.2C35.3611 21 35.8889 20.4 35.8889 19.7V16.3C35.8889 15.6 35.3611 14.9 34.6222 14.7ZM33.7778 19.4L29.9778 20.5L29.8722 21L28.9222 23.1L28.6056 23.6L30.5056 26.9L28.3944 28.9L24.9111 27.1L24.3833 27.4C23.6444 27.8 22.9056 28.1 22.1667 28.3L21.6389 28.4L20.4778 32H17.5222L16.3611 28.4L15.8333 28.3L13.6167 27.4L13.0889 27.1L9.60556 28.9L7.49445 26.9L9.39445 23.6L9.07778 23.1C8.65556 22.4 8.33889 21.7 8.12778 21L8.02223 20.5L4.22223 19.4V16.6L7.81111 15.6L8.02223 15.1C8.23334 14.3 8.55 13.6 8.97223 12.9L9.28889 12.4L7.49445 9.1L9.60556 7.1L12.9833 8.9L13.5111 8.6C14.25 8.2 14.9889 7.9 15.8333 7.7L16.3611 7.5L17.5222 4H20.4778L21.6389 7.5L22.1667 7.7C22.9056 7.9 23.6444 8.2 24.3833 8.6L24.9111 8.9L28.3944 7.1L30.5056 9.1L28.6056 12.4L28.9222 12.9C29.3444 13.6 29.6611 14.3 29.8722 15L29.9778 15.5L33.7778 16.6V19.4Z" fill="#0D8BFF"/>
</svg>
