<svg width="99" height="42" viewBox="0 0 99 42" fill="none" xmlns="http://www.w3.org/2000/svg">
<rect y="9" width="12.6289" height="12.5" rx="1" fill="#0D8BFF"/>
<rect x="12.6289" y="21.5" width="12.6289" height="12.5" rx="1" fill="#0D8BFF"/>
<path d="M43.848 31.196C42.4107 31.196 41.1227 30.9627 39.984 30.496C38.8453 30.0293 37.9307 29.3387 37.24 28.424C36.568 27.5093 36.2133 26.408 36.176 25.12H41.272C41.3467 25.848 41.5987 26.408 42.028 26.8C42.4573 27.1733 43.0173 27.36 43.708 27.36C44.4173 27.36 44.9773 27.2013 45.388 26.884C45.7987 26.548 46.004 26.0907 46.004 25.512C46.004 25.0267 45.836 24.6253 45.5 24.308C45.1827 23.9907 44.7813 23.7293 44.296 23.524C43.8293 23.3187 43.1573 23.0853 42.28 22.824C41.0107 22.432 39.9747 22.04 39.172 21.648C38.3693 21.256 37.6787 20.6773 37.1 19.912C36.5213 19.1467 36.232 18.148 36.232 16.916C36.232 15.0867 36.8947 13.6587 38.22 12.632C39.5453 11.5867 41.272 11.064 43.4 11.064C45.5653 11.064 47.3107 11.5867 48.636 12.632C49.9613 13.6587 50.6707 15.096 50.764 16.944H45.584C45.5467 16.3093 45.3133 15.8147 44.884 15.46C44.4547 15.0867 43.904 14.9 43.232 14.9C42.6533 14.9 42.1867 15.0587 41.832 15.376C41.4773 15.6747 41.3 16.1133 41.3 16.692C41.3 17.3267 41.5987 17.8213 42.196 18.176C42.7933 18.5307 43.7267 18.9133 44.996 19.324C46.2653 19.7533 47.292 20.164 48.076 20.556C48.8787 20.948 49.5693 21.5173 50.148 22.264C50.7267 23.0107 51.016 23.972 51.016 25.148C51.016 26.268 50.7267 27.2853 50.148 28.2C49.588 29.1147 48.7667 29.8427 47.684 30.384C46.6013 30.9253 45.3227 31.196 43.848 31.196ZM58.7506 11.344V31H53.9626V11.344H58.7506ZM76.3604 11.344V15.18H71.1524V31H66.3644V15.18H61.1564V11.344H76.3604ZM93.7433 17.672C93.7433 18.8107 93.482 19.856 92.9593 20.808C92.4367 21.7413 91.634 22.4973 90.5513 23.076C89.4687 23.6547 88.1247 23.944 86.5193 23.944H83.5513V31H78.7633V11.344H86.5193C88.0873 11.344 89.4127 11.6147 90.4953 12.156C91.578 12.6973 92.39 13.444 92.9313 14.396C93.4727 15.348 93.7433 16.44 93.7433 17.672ZM86.1553 20.136C87.07 20.136 87.7513 19.9213 88.1993 19.492C88.6473 19.0627 88.8713 18.456 88.8713 17.672C88.8713 16.888 88.6473 16.2813 88.1993 15.852C87.7513 15.4227 87.07 15.208 86.1553 15.208H83.5513V20.136H86.1553Z" fill="#0D8BFF"/>
</svg>
