<svg width="16" height="21" viewBox="0 0 16 21" fill="none" xmlns="http://www.w3.org/2000/svg">
<path d="M8.5 8.66443C8.5 8.46552 8.57902 8.27475 8.71967 8.1341C8.86032 7.99345 9.05109 7.91443 9.25 7.91443H12.75C12.9489 7.91443 13.1397 7.99345 13.2803 8.1341C13.421 8.27475 13.5 8.46552 13.5 8.66443C13.5 8.86334 13.421 9.05411 13.2803 9.19476C13.1397 9.33541 12.9489 9.41443 12.75 9.41443H9.25C9.05109 9.41443 8.86032 9.33541 8.71967 9.19476C8.57902 9.05411 8.5 8.86334 8.5 8.66443ZM9.25 13.4144C9.05109 13.4144 8.86032 13.4934 8.71967 13.6341C8.57902 13.7748 8.5 13.9655 8.5 14.1644C8.5 14.3633 8.57902 14.5541 8.71967 14.6948C8.86032 14.8354 9.05109 14.9144 9.25 14.9144H12.75C12.9489 14.9144 13.1397 14.8354 13.2803 14.6948C13.421 14.5541 13.5 14.3633 13.5 14.1644C13.5 13.9655 13.421 13.7748 13.2803 13.6341C13.1397 13.4934 12.9489 13.4144 12.75 13.4144H9.25ZM6.78 8.19443C6.85369 8.12577 6.91279 8.04297 6.95378 7.95097C6.99477 7.85897 7.01682 7.75965 7.01859 7.65895C7.02037 7.55825 7.00184 7.45822 6.96412 7.36483C6.9264 7.27144 6.87026 7.18661 6.79904 7.11539C6.72782 7.04417 6.64299 6.98803 6.5496 6.95031C6.45621 6.91258 6.35618 6.89406 6.25548 6.89584C6.15478 6.89761 6.05546 6.91966 5.96346 6.96065C5.87146 7.00164 5.78866 7.06074 5.72 7.13443L4.25 8.60443L3.78 8.13443C3.63783 8.00195 3.44978 7.92983 3.25548 7.93325C3.06118 7.93668 2.87579 8.01539 2.73838 8.15281C2.60097 8.29022 2.52225 8.47561 2.51883 8.66991C2.5154 8.86421 2.58752 9.05225 2.72 9.19443L3.72 10.1944C3.86063 10.3349 4.05125 10.4138 4.25 10.4138C4.44875 10.4138 4.63937 10.3349 4.78 10.1944L6.78 8.19443ZM6.78 12.6344C6.92045 12.7751 6.99934 12.9657 6.99934 13.1644C6.99934 13.3632 6.92045 13.5538 6.78 13.6944L4.78 15.6944C4.63937 15.8349 4.44875 15.9138 4.25 15.9138C4.05125 15.9138 3.86063 15.8349 3.72 15.6944L2.72 14.6944C2.64631 14.6258 2.58721 14.543 2.54622 14.451C2.50523 14.359 2.48319 14.2597 2.48141 14.159C2.47963 14.0582 2.49816 13.9582 2.53588 13.8648C2.5736 13.7714 2.62974 13.6866 2.70096 13.6154C2.77218 13.5442 2.85701 13.488 2.9504 13.4503C3.04379 13.4126 3.14382 13.3941 3.24452 13.3958C3.34523 13.3976 3.44454 13.4197 3.53654 13.4606C3.62854 13.5016 3.71134 13.5607 3.78 13.6344L4.25 14.1044L5.72 12.6344C5.86063 12.494 6.05125 12.4151 6.25 12.4151C6.44875 12.4151 6.63937 12.494 6.78 12.6344ZM11.994 2.49843C11.9521 1.93195 11.6975 1.40229 11.2813 1.01575C10.865 0.629207 10.318 0.414395 9.75 0.414429H6.25C5.69656 0.414445 5.16255 0.618436 4.75004 0.9874C4.33754 1.35636 4.07549 1.86442 4.014 2.41443H2.25C1.65326 2.41443 1.08097 2.65148 0.65901 3.07344C0.237053 3.4954 0 4.06769 0 4.66443V18.1644C0 18.7612 0.237053 19.3335 0.65901 19.7554C1.08097 20.1774 1.65326 20.4144 2.25 20.4144H13.75C14.0455 20.4144 14.3381 20.3562 14.611 20.2432C14.884 20.1301 15.1321 19.9643 15.341 19.7554C15.5499 19.5465 15.7157 19.2984 15.8287 19.0255C15.9418 18.7525 16 18.4599 16 18.1644V4.66443C16 4.36895 15.9418 4.07637 15.8287 3.80339C15.7157 3.53041 15.5499 3.28237 15.341 3.07344C15.1321 2.86451 14.884 2.69877 14.611 2.5857C14.3381 2.47263 14.0455 2.41443 13.75 2.41443H11.986L11.994 2.49843ZM11.994 2.51043L12 2.66443C12 2.61243 11.997 2.56143 11.994 2.51043ZM6.25 4.91443H9.75C10.53 4.91443 11.217 4.51743 11.621 3.91443H13.75C13.9489 3.91443 14.1397 3.99345 14.2803 4.1341C14.421 4.27475 14.5 4.46552 14.5 4.66443V18.1644C14.5 18.3633 14.421 18.5541 14.2803 18.6948C14.1397 18.8354 13.9489 18.9144 13.75 18.9144H2.25C2.05109 18.9144 1.86032 18.8354 1.71967 18.6948C1.57902 18.5541 1.5 18.3633 1.5 18.1644V4.66443C1.5 4.46552 1.57902 4.27475 1.71967 4.1341C1.86032 3.99345 2.05109 3.91443 2.25 3.91443H4.379C4.783 4.51743 5.47 4.91443 6.25 4.91443ZM6.25 1.91443H9.75C9.94891 1.91443 10.1397 1.99345 10.2803 2.1341C10.421 2.27475 10.5 2.46552 10.5 2.66443C10.5 2.86334 10.421 3.05411 10.2803 3.19476C10.1397 3.33541 9.94891 3.41443 9.75 3.41443H6.25C6.05109 3.41443 5.86032 3.33541 5.71967 3.19476C5.57902 3.05411 5.5 2.86334 5.5 2.66443C5.5 2.46552 5.57902 2.27475 5.71967 2.1341C5.86032 1.99345 6.05109 1.91443 6.25 1.91443Z" fill="#404557"/>
</svg>
